<svg version="1.1" id="Layer_1" xmlns="http://www.w3.org/2000/svg" xmlns:xlink="http://www.w3.org/1999/xlink" x="0px" y="0px"
	 width="100%" viewBox="0 0 832 832" enable-background="new 0 0 832 832" xml:space="preserve">
<path fill="#000000" opacity="1.000000" stroke="none" 
	d="
M679.206055,678.738037 
	C694.809570,662.669678 710.378601,646.013245 720.430664,626.230347 
	C729.110718,609.147583 740.927002,593.787537 747.629456,575.725586 
	C749.119446,571.710388 753.219788,569.974915 754.837708,565.752502 
	C764.796631,539.761658 774.011169,513.499207 778.373962,485.978821 
	C780.431763,472.998383 782.179626,459.852020 782.811890,446.597137 
	C783.476868,432.658783 784.817993,418.756744 784.677551,404.774292 
	C784.595642,396.619354 783.378723,388.522308 783.271790,380.416687 
	C783.189697,374.193115 782.882141,367.867371 782.297058,361.818573 
	C780.126160,339.373413 775.065002,317.396790 768.294434,295.859436 
	C765.450012,286.811340 763.157715,277.479980 759.258911,268.892853 
	C745.751282,239.142624 730.586731,210.280548 710.575806,184.232025 
	C705.197021,177.230377 699.848022,170.192963 694.810608,162.945862 
	C690.579041,156.858017 684.456726,152.824951 679.404541,147.694946 
	C632.389832,99.956657 576.778992,67.063774 512.185059,49.195442 
	C495.636963,44.617825 478.828705,40.949722 461.935089,38.784893 
	C442.849213,36.339142 423.459869,35.199860 404.122803,36.072151 
	C347.372650,38.632149 294.015686,53.595978 243.817841,80.124283 
	C209.024734,98.511574 178.637329,122.570000 150.895248,150.352524 
	C125.970032,175.314056 106.400345,203.852219 89.280365,234.587097 
	C66.455803,275.563202 54.180141,319.604340 47.241947,365.511261 
	C44.450993,383.977722 43.771580,402.604706 43.261688,421.235291 
	C43.131374,425.996796 41.840816,430.666229 42.860950,436.281586 
	C39.105801,430.886871 40.721649,379.058929 44.185741,357.650909 
	C48.357094,331.872070 54.126781,306.514252 62.350773,281.723663 
	C44.979000,327.511719 38.293373,375.386353 35.737179,425.256409 
	C30.690485,418.922546 31.751116,384.804901 36.491673,355.206818 
	C40.149414,332.369385 45.169220,309.877991 53.102345,287.294495 
	C50.859711,288.843353 50.907864,290.640320 50.465908,292.058868 
	C47.395775,301.913208 40.436085,310.163208 38.916683,320.692749 
	C38.384647,324.379791 37.441940,328.129578 35.380253,332.049866 
	C34.441536,328.874115 35.512348,326.333740 36.115334,323.957916 
	C49.229221,272.287964 70.125221,224.050308 101.046494,180.503662 
	C145.126984,118.424835 202.060303,72.143127 272.449829,42.629566 
	C307.546356,27.913973 344.024933,18.559183 381.845551,15.020700 
	C408.208252,12.554213 434.644379,12.615434 461.086090,15.474181 
	C527.791504,22.686037 589.036560,44.879711 644.444946,82.529457 
	C708.820740,126.272537 757.330505,183.724548 788.935181,254.936600 
	C802.488281,285.474762 810.341431,317.801331 815.488464,350.827148 
	C818.982422,373.246033 820.703796,395.794739 820.874146,418.399200 
	C821.058472,442.862885 818.729065,467.183228 814.586365,491.374939 
	C807.416443,533.244446 794.204346,572.975647 774.393982,610.525269 
	C749.577637,657.563416 716.334961,697.721375 675.567688,731.787476 
	C625.338440,773.760193 567.901672,800.895935 504.147217,814.731018 
	C481.561157,819.632385 458.693604,823.283691 435.424530,823.068420 
	C428.167542,823.001343 424.015961,822.332458 419.589294,820.036133 
	C438.266998,816.672241 456.175232,817.103699 473.498413,813.173157 
	C431.472229,817.783875 389.701355,816.396362 348.153656,808.434875 
	C349.837433,807.080750 351.781708,807.541260 353.470459,807.845337 
	C375.639923,811.836853 398.017487,812.856201 420.483887,812.855652 
	C444.164368,812.855164 467.489563,809.994141 490.782196,805.721802 
	C550.032104,794.854431 603.399414,770.950378 651.558472,735.013367 
	C682.901672,711.624634 709.997192,684.039978 733.670227,652.949036 
	C736.198914,649.627991 736.041443,645.777588 738.060120,642.605713 
	C743.062012,634.746216 748.313354,627.039795 753.137024,619.073547 
	C776.563049,580.385071 792.188538,538.617493 801.619446,494.493683 
	C806.457520,471.858093 809.676025,448.990021 809.790100,425.765900 
	C809.820190,419.636414 806.118469,413.983521 807.587952,409.416931 
	C806.908936,421.087433 806.425232,434.498413 805.281494,447.852844 
	C803.611389,467.351440 800.615234,486.606232 795.337646,505.561859 
	C790.124634,524.285461 783.281982,542.450745 777.680725,561.021423 
	C770.684326,584.217773 758.908875,605.086426 746.222961,625.389709 
	C704.155640,692.716919 646.851685,742.647766 573.991638,774.504883 
	C568.961609,776.704102 563.887512,778.803345 558.814209,780.901367 
	C558.428772,781.060791 557.885071,780.837524 557.167603,780.285706 
	C570.879578,773.293945 584.465149,766.137695 597.403442,757.761475 
	C594.796692,758.904846 592.189941,760.048279 589.583191,761.191650 
	C589.351135,760.758179 589.119019,760.324768 588.886963,759.891296 
	C612.600281,747.026489 634.829102,731.986511 655.555115,714.823425 
	C676.407043,697.555969 695.560608,678.656555 709.752197,655.054260 
	C707.336548,657.322144 704.877747,659.546021 702.513062,661.865906 
	C694.424988,669.800476 686.321289,677.717773 677.291443,684.602600 
	C675.170715,686.219604 675.110474,686.140564 674.071411,684.138428 
	C676.329163,682.345215 677.913879,680.681824 679.206055,678.738037 
M810.701965,402.646576 
	C810.683411,402.316010 810.719604,401.969452 810.629211,401.659851 
	C810.555603,401.407867 810.330444,401.200134 809.872070,400.540497 
	C809.037781,404.824463 809.179321,408.719452 809.332031,413.664764 
	C810.542786,409.598846 810.785706,406.487427 810.701965,402.646576 
M522.405029,32.435886 
	C522.301270,32.513893 522.197571,32.591896 522.093811,32.669884 
	C522.212463,32.780746 522.312988,32.951103 522.452515,32.993786 
	C526.019287,34.084759 529.590149,35.162422 533.160339,36.242393 
	C533.218689,36.008701 533.276978,35.775009 533.335327,35.541321 
	C529.846680,34.509697 526.358093,33.478073 522.405029,32.435886 
z"/>
<path fill="#000000" opacity="1.000000" stroke="none" 
	d="
M507.225830,142.818649 
	C524.557129,142.400177 541.352295,142.843811 557.683960,147.618530 
	C575.513428,152.831161 588.741089,163.287964 592.966492,182.096573 
	C597.505859,202.302856 592.138916,219.958359 577.001465,234.424927 
	C571.153931,240.013306 564.560181,244.395340 557.157227,247.659073 
	C554.323608,248.908325 551.484497,249.392883 548.434631,249.366486 
	C545.186157,249.338333 542.815796,247.927872 542.017761,244.882523 
	C541.146973,241.559464 543.248901,239.499237 546.126038,238.371399 
	C551.901733,236.107300 557.379456,233.292084 562.316467,229.551544 
	C576.926636,218.482056 583.071899,203.846893 579.652039,185.767563 
	C576.875061,171.086990 565.821716,164.561157 552.834595,160.460434 
	C538.555603,155.951797 523.826233,156.360794 509.232300,157.589874 
	C474.836609,160.486603 441.764496,169.376740 409.594513,181.549179 
	C371.655365,195.904587 336.292053,215.083298 304.630676,240.581223 
	C289.658905,252.638474 276.123932,266.247681 266.983063,283.504547 
	C251.519058,312.698792 254.250351,341.268341 270.662140,369.051819 
	C281.667175,387.682220 295.836945,403.890381 311.184418,418.993378 
	C334.106201,441.550049 357.434601,463.693054 380.477142,486.127991 
	C382.951263,488.536926 385.090820,488.593109 388.036896,487.449036 
	C433.705109,469.713928 480.393433,455.044281 527.363342,441.227356 
	C553.383057,433.573273 579.330200,425.662689 605.719727,419.325470 
	C609.033813,418.529633 612.328552,418.654144 615.652039,418.746979 
	C617.056946,418.786194 618.366089,419.274139 618.813049,420.729919 
	C619.350159,422.478943 618.233337,423.737946 616.870483,424.369965 
	C614.621704,425.412933 612.256042,426.280640 609.858337,426.914581 
	C557.529602,440.749664 506.024811,457.253143 454.851379,474.818085 
	C436.110504,481.250793 417.502808,488.062805 399.245911,495.789490 
	C397.423737,496.560669 395.454590,497.099426 393.462158,499.182098 
	C398.167572,504.362061 403.069122,509.451324 407.627686,514.831177 
	C424.136261,534.314148 440.691162,553.942078 448.575439,578.784851 
	C457.527039,606.990540 456.455811,634.493652 437.939362,659.028442 
	C426.298157,674.453369 410.158661,684.409851 392.194061,690.917725 
	C353.116974,705.073914 313.551727,705.825073 274.374023,691.882446 
	C254.304138,684.739929 237.440460,672.587341 228.661087,651.949646 
	C220.178207,632.008911 224.643402,613.402344 235.394974,595.847107 
	C247.325638,576.366577 263.945526,561.242737 281.981689,547.577698 
	C308.247711,527.677246 336.670624,511.351715 366.210632,496.885773 
	C366.927551,496.534698 367.596680,496.086090 368.235291,495.713776 
	C368.033417,493.174683 366.129303,492.132385 364.768524,490.780823 
	C341.003662,467.176941 316.926514,443.879486 293.510345,419.935394 
	C277.679260,403.747314 262.559875,386.891815 251.055954,367.077698 
	C233.292450,336.482208 233.632523,305.652252 249.041702,274.542572 
	C260.515289,251.378448 278.657867,234.113495 299.529175,219.518616 
	C334.356293,195.164734 372.952301,178.383469 412.581726,163.742569 
	C439.054047,153.962479 466.322266,147.397064 494.328186,143.929459 
	C498.450165,143.419098 502.607788,143.196945 507.225830,142.818649 
M399.518280,667.019775 
	C403.282684,664.562561 407.171295,662.274658 410.790375,659.619385 
	C428.265533,646.798218 438.138824,629.965515 437.649384,607.817139 
	C437.294556,591.758911 431.997345,577.169617 424.073517,563.438721 
	C412.265686,542.977417 396.972076,525.165222 381.427246,507.537628 
	C379.044556,504.835663 377.007965,505.494629 374.456177,506.855347 
	C345.050598,522.535767 316.084198,538.967468 289.277161,558.861450 
	C272.911102,571.006958 257.604980,584.311890 247.205566,602.341858 
	C232.316162,628.156372 238.649017,653.854370 263.836487,669.584595 
	C277.238373,677.954529 291.911011,682.262817 307.528564,683.866150 
	C339.579163,687.156616 370.206604,682.707520 399.518280,667.019775 
z"/>
<path fill="#000000" opacity="1.000000" stroke="none" 
	d="
M142.493073,699.507080 
	C105.742882,663.335876 78.147087,621.503113 58.821716,574.086792 
	C118.441811,695.268433 211.363724,775.733643 343.835175,808.325928 
	C339.425232,808.778320 335.275238,807.616821 331.093567,806.791992 
	C326.852722,805.955505 322.521606,805.389587 318.407074,804.127747 
	C263.091034,787.164185 213.203217,760.015503 168.304916,723.633606 
	C159.239059,716.287354 150.920578,708.083862 142.493073,699.507080 
z"/>
<path fill="#000000" opacity="1.000000" stroke="none" 
	d="
M285.887543,778.947083 
	C282.223663,777.356384 278.381104,774.233459 274.949463,774.633667 
	C271.910217,774.988159 269.471191,774.859863 266.851807,773.844421 
	C265.787231,773.431702 264.567352,772.905945 263.916260,772.051880 
	C262.726166,770.490662 264.756409,770.909119 265.344666,770.238892 
	C257.974396,766.413574 250.975601,761.340637 243.177170,759.248962 
	C238.128906,757.894897 232.891113,757.223877 229.266281,753.629395 
	C214.100708,738.590759 194.288376,729.503967 179.350082,714.235657 
	C178.671890,713.542480 177.735306,712.993591 177.926987,710.405090 
	C229.691605,754.761108 288.783661,782.623230 354.709869,796.383057 
	C342.283569,796.348206 330.803040,791.720459 318.153992,789.861694 
	C306.972870,786.121399 296.430206,782.534241 285.887543,778.947083 
z"/>
<path fill="#000000" opacity="1.000000" stroke="none" 
	d="
M460.967163,807.543701 
	C442.848938,809.944275 425.062103,809.507812 407.280884,809.203552 
	C406.474396,809.189819 405.621948,808.958130 404.960693,806.674377 
	C445.582245,808.455200 485.313049,804.468445 524.345337,793.988281 
	C520.309387,797.581238 515.132080,797.790283 510.429596,799.056396 
	C495.792847,802.997009 480.779694,805.148193 465.846497,807.637329 
	C464.407166,807.877258 462.873474,807.550781 460.967163,807.543701 
z"/>
<path fill="#000000" opacity="1.000000" stroke="none" 
	d="
M679.238403,678.418457 
	C677.913879,680.681824 676.329163,682.345215 674.152527,683.908081 
	C671.633789,684.723999 670.284912,686.530640 668.928406,688.141174 
	C662.088684,696.261658 653.052673,701.683228 644.767334,708.023682 
	C643.795227,708.767578 642.804504,709.818176 640.287292,709.085754 
	C657.108582,695.891907 672.750549,682.292603 686.819458,666.929688 
	C685.706238,671.711914 680.814514,673.731689 679.238403,678.418457 
z"/>
<path fill="#000000" opacity="1.000000" stroke="none" 
	d="
M285.579529,778.941406 
	C296.430206,782.534241 306.972870,786.121399 317.731079,789.831848 
	C318.422729,790.393311 318.898773,790.831543 319.374817,791.269775 
	C319.200195,791.752502 319.025574,792.235229 318.850952,792.717957 
	C306.603485,789.420349 294.614136,785.324768 282.626587,780.595825 
	C283.611176,778.743652 284.494751,778.995972 285.579529,778.941406 
z"/>
<path fill="#000000" opacity="1.000000" stroke="none" 
	d="
M241.094818,733.845276 
	C250.368088,739.347778 259.633179,744.112366 269.956207,749.059814 
	C263.439758,749.696838 232.903152,733.336792 228.073593,726.838196 
	C233.415268,728.417603 236.812515,731.618530 241.094818,733.845276 
z"/>
<path fill="#000000" opacity="1.000000" stroke="none" 
	d="
M550.680603,759.985107 
	C551.787964,759.808167 552.570007,759.756042 553.659668,759.683472 
	C550.450745,763.222107 535.203796,768.250610 528.681702,767.443115 
	C536.784302,764.701599 543.569824,762.405762 550.680603,759.985107 
z"/>
<path fill="#000000" opacity="1.000000" stroke="none" 
	d="
M431.709503,784.867310 
	C425.812225,785.454407 420.214050,785.849670 414.828644,783.339172 
	C420.553162,783.873474 426.446655,780.890015 431.709503,784.867310 
z"/>
</svg>